<?xml version="1.0" encoding="UTF-8"?>
<svg xmlns="http://www.w3.org/2000/svg" xmlns:xlink="http://www.w3.org/1999/xlink" width="256pt" height="256pt" viewBox="0 0 256 256" version="1.1">
<g id="surface16">
<path style=" stroke:none;fill-rule:nonzero;fill:rgb(0%,0%,0%);fill-opacity:1;" d="M 167.25 207 C 171.648438 208.898438 176.75 208 180.25 204.699219 L 252.25 136.699219 C 254.648438 134.449219 256 131.300781 256 128 C 256 124.699219 254.648438 121.550781 252.25 119.300781 L 180.25 51.300781 C 176.75 48 171.648438 47.101562 167.25 49 C 162.851562 50.898438 160 55.25 160 60 L 160 104 L 16 104 C 7.148438 104 0 111.148438 0 120 L 0 136 C 0 144.851562 7.148438 152 16 152 L 160 152 L 160 196 C 160 200.800781 162.851562 205.101562 167.25 207 Z M 167.25 207 "/>
</g>
</svg>
