<?xml version="1.0" encoding="UTF-8"?>
<svg xmlns="http://www.w3.org/2000/svg" xmlns:xlink="http://www.w3.org/1999/xlink" width="320pt" height="256pt" viewBox="0 0 320 256" version="1.1">
<g id="surface6">
<path style=" stroke:none;fill-rule:nonzero;fill:rgb(33.333334%,60.000002%,100%);fill-opacity:1;" d="M 0 168 C 0 207.75 32.25 240 72 240 L 256 240 C 291.351562 240 320 211.351562 320 176 C 320 145.050781 298 119.199219 268.800781 113.300781 C 270.851562 107.949219 272 102.101562 272 96 C 272 69.5 250.5 48 224 48 C 214.148438 48 204.949219 51 197.351562 56.101562 C 183.5 32.101562 157.648438 16 128 16 C 83.800781 16 48 51.800781 48 96 C 48 97.351562 48.050781 98.699219 48.101562 100.050781 C 20.101562 109.898438 0 136.601562 0 168 Z M 0 168 "/>
</g>
</svg>
