<?xml version="1.0" encoding="UTF-8"?>
<svg xmlns="http://www.w3.org/2000/svg" xmlns:xlink="http://www.w3.org/1999/xlink" width="192pt" height="256pt" viewBox="0 0 192 256" version="1.1">
<g id="surface21">
<path style=" stroke:none;fill-rule:nonzero;fill:rgb(0%,0%,0%);fill-opacity:1;" d="M 159.351562 134.351562 C 159.25 116 167.550781 102.148438 184.351562 91.949219 C 174.949219 78.5 160.75 71.101562 142 69.648438 C 124.25 68.25 104.851562 80 97.75 80 C 90.25 80 73.050781 70.148438 59.550781 70.148438 C 31.648438 70.601562 2 92.398438 2 136.75 C 2 149.851562 4.398438 163.382812 9.199219 177.351562 C 15.601562 195.699219 38.699219 240.699219 62.800781 239.949219 C 75.398438 239.648438 84.300781 231 100.699219 231 C 116.601562 231 124.851562 239.949219 138.898438 239.949219 C 163.199219 239.601562 184.101562 198.699219 190.199219 180.300781 C 157.601562 164.949219 159.351562 135.300781 159.351562 134.351562 Z M 131.050781 52.25 C 144.699219 36.050781 143.449219 21.300781 143.050781 16 C 131 16.699219 117.050781 24.199219 109.101562 33.449219 C 100.351562 43.351562 95.199219 55.601562 96.300781 69.398438 C 109.351562 70.398438 121.25 63.699219 131.050781 52.25 Z M 131.050781 52.25 "/>
</g>
</svg>
