<?xml version="1.0" encoding="UTF-8"?>
<svg xmlns="http://www.w3.org/2000/svg" xmlns:xlink="http://www.w3.org/1999/xlink" width="256pt" height="256pt" viewBox="0 0 256 256" version="1.1">
<g id="surface11">
<path style=" stroke:none;fill-rule:nonzero;fill:rgb(26.274511%,51.372552%,64.313728%);fill-opacity:1;" d="M 247.949219 83.300781 C 249.550781 87.648438 248.199219 92.5 244.75 95.601562 L 223.101562 115.300781 C 223.648438 119.449219 223.949219 123.699219 223.949219 128 C 223.949219 132.300781 223.648438 136.550781 223.101562 140.699219 L 244.75 160.398438 C 248.199219 163.5 249.550781 168.351562 247.949219 172.699219 C 245.75 178.648438 243.101562 184.351562 240.050781 189.851562 L 237.699219 193.898438 C 234.398438 199.398438 230.699219 204.601562 226.648438 209.5 C 223.699219 213.101562 218.800781 214.300781 214.398438 212.898438 L 186.550781 204.050781 C 179.851562 209.199219 172.449219 213.5 164.550781 216.75 L 158.300781 245.300781 C 157.300781 249.851562 153.800781 253.449219 149.199219 254.199219 C 142.300781 255.351562 135.199219 255.949219 127.949219 255.949219 C 120.699219 255.949219 113.601562 255.351562 106.699219 254.199219 C 102.101562 253.449219 98.601562 249.851562 97.601562 245.300781 L 91.351562 216.75 C 83.449219 213.5 76.050781 209.199219 69.351562 204.050781 L 41.550781 212.949219 C 37.148438 214.351562 32.25 213.101562 29.300781 209.550781 C 25.25 204.648438 21.550781 199.449219 18.25 193.949219 L 15.898438 189.898438 C 12.851562 184.398438 10.199219 178.699219 8 172.75 C 6.398438 168.398438 7.75 163.550781 11.199219 160.449219 L 32.851562 140.75 C 32.300781 136.550781 32 132.300781 32 128 C 32 123.699219 32.300781 119.449219 32.851562 115.300781 L 11.199219 95.601562 C 7.75 92.5 6.398438 87.648438 8 83.300781 C 10.199219 77.351562 12.851562 71.648438 15.898438 66.148438 L 18.25 62.101562 C 21.550781 56.601562 25.25 51.398438 29.300781 46.5 C 32.25 42.898438 37.148438 41.699219 41.550781 43.101562 L 69.398438 51.949219 C 76.101562 46.800781 83.5 42.5 91.398438 39.25 L 97.648438 10.699219 C 98.648438 6.148438 102.148438 2.550781 106.75 1.800781 C 113.648438 0.601562 120.75 0 128 0 C 135.25 0 142.351562 0.601562 149.25 1.75 C 153.851562 2.5 157.351562 6.101562 158.351562 10.648438 L 164.601562 39.199219 C 172.5 42.449219 179.898438 46.75 186.601562 51.898438 L 214.449219 43.050781 C 218.851562 41.648438 223.75 42.898438 226.699219 46.449219 C 230.75 51.351562 234.449219 56.550781 237.75 62.050781 L 240.101562 66.101562 C 243.148438 71.601562 245.800781 77.300781 248 83.25 Z M 128 168 C 150.101562 168 168 150.101562 168 128 C 168 105.898438 150.101562 88 128 88 C 105.898438 88 88 105.898438 88 128 C 88 150.101562 105.898438 168 128 168 Z M 128 168 "/>
</g>
</svg>
