<?xml version="1.0" encoding="UTF-8"?>
<svg xmlns="http://www.w3.org/2000/svg" xmlns:xlink="http://www.w3.org/1999/xlink" width="224pt" height="256pt" viewBox="0 0 224 256" version="1.1">
<g id="surface31">
<path style=" stroke:none;fill-rule:nonzero;fill:rgb(0%,0%,0%);fill-opacity:1;" d="M 110.398438 61.648438 C 110.898438 61.898438 111.300781 62.5 111.898438 62.5 C 112.449219 62.5 113.300781 62.300781 113.351562 61.75 C 113.449219 61.050781 112.398438 60.601562 111.75 60.300781 C 110.898438 59.949219 109.800781 59.800781 109 60.25 C 108.800781 60.351562 108.601562 60.601562 108.699219 60.800781 C 108.851562 61.449219 109.851562 61.351562 110.398438 61.648438 Z M 99.449219 62.5 C 100.050781 62.5 100.449219 61.898438 100.949219 61.648438 C 101.5 61.351562 102.5 61.449219 102.699219 60.851562 C 102.800781 60.648438 102.601562 60.398438 102.398438 60.300781 C 101.601562 59.851562 100.5 60 99.648438 60.351562 C 99 60.648438 97.949219 61.101562 98.050781 61.800781 C 98.101562 62.300781 98.949219 62.550781 99.449219 62.5 Z M 210 201.898438 C 208.199219 199.898438 207.351562 196.101562 206.398438 192.050781 C 205.5 188 204.449219 183.648438 201.148438 180.851562 C 200.5 180.300781 199.851562 179.800781 199.148438 179.398438 C 198.5 179 197.800781 178.648438 197.101562 178.398438 C 201.699219 164.75 199.898438 151.148438 195.25 138.851562 C 189.550781 123.800781 179.601562 110.648438 172 101.648438 C 163.449219 90.898438 155.148438 80.699219 155.300781 65.648438 C 155.550781 42.699219 157.851562 0.0507812 117.398438 0 C 66.199219 -0.101562 79 51.699219 78.449219 67.601562 C 77.601562 79.300781 75.25 88.5 67.199219 99.949219 C 57.75 111.199219 44.449219 129.351562 38.148438 148.300781 C 35.148438 157.25 33.75 166.351562 35.050781 174.949219 C 31.800781 177.851562 29.351562 182.300781 26.75 185.050781 C 24.648438 187.199219 21.601562 188 18.25 189.199219 C 14.898438 190.398438 11.25 192.199219 9 196.449219 C 7.949219 198.398438 7.601562 200.5 7.601562 202.648438 C 7.601562 204.601562 7.898438 206.601562 8.199219 208.550781 C 8.800781 212.601562 9.449219 216.398438 8.601562 218.949219 C 6 226.148438 5.648438 231.148438 7.5 234.800781 C 9.398438 238.449219 13.199219 240.050781 17.550781 240.949219 C 26.199219 242.75 37.949219 242.300781 47.199219 247.199219 C 57.101562 252.398438 67.148438 254.25 75.148438 252.398438 C 80.949219 251.101562 85.699219 247.601562 88.101562 242.300781 C 94.351562 242.25 101.25 239.601562 112.25 239 C 119.699219 238.398438 129.050781 241.648438 139.800781 241.050781 C 140.101562 242.199219 140.5 243.351562 141.050781 244.398438 L 141.050781 244.449219 C 145.199219 252.800781 152.949219 256.601562 161.199219 255.949219 C 169.5 255.300781 178.25 250.449219 185.351562 242 C 192.148438 233.800781 203.351562 230.398438 210.800781 225.898438 C 214.5 223.648438 217.5 220.851562 217.75 216.75 C 217.949219 212.648438 215.550781 208.101562 210 201.898438 Z M 111.851562 43.648438 C 116.75 32.550781 128.949219 32.75 133.851562 43.449219 C 137.101562 50.550781 135.648438 58.898438 131.699219 63.648438 C 130.898438 63.25 128.75 62.351562 125.398438 61.199219 C 125.949219 60.601562 126.949219 59.851562 127.351562 58.898438 C 129.75 53 127.25 45.398438 122.800781 45.25 C 119.148438 45 115.851562 50.648438 116.898438 56.75 C 114.851562 55.75 112.199219 55 110.398438 54.550781 C 109.898438 51.101562 110.25 47.25 111.851562 43.648438 Z M 91.5 37.898438 C 96.550781 37.898438 101.898438 45 101.050781 54.648438 C 99.300781 55.148438 97.5 55.898438 95.949219 56.949219 C 96.550781 52.5 94.300781 46.898438 91.148438 47.148438 C 86.949219 47.5 86.25 57.75 90.25 61.199219 C 90.75 61.601562 91.199219 61.101562 87.300781 63.949219 C 79.5 56.648438 82.050781 37.898438 91.5 37.898438 Z M 84.699219 68.25 C 87.800781 65.949219 91.5 63.25 91.75 63 C 94.101562 60.800781 98.5 55.898438 105.699219 55.898438 C 109.25 55.898438 113.5 57.050781 118.648438 60.351562 C 121.800781 62.398438 124.300781 62.550781 129.949219 65 C 134.148438 66.75 136.800781 69.851562 135.199219 74.101562 C 133.898438 77.648438 129.699219 81.300781 123.851562 83.148438 C 118.300781 84.949219 113.949219 91.148438 104.75 90.601562 C 102.800781 90.5 101.25 90.101562 99.949219 89.550781 C 95.949219 87.800781 93.851562 84.351562 89.949219 82.050781 C 85.648438 79.648438 83.351562 76.851562 82.601562 74.398438 C 81.898438 71.949219 82.601562 69.898438 84.699219 68.25 Z M 86.351562 235.25 C 85 252.800781 64.398438 252.449219 48.699219 244.25 C 33.75 236.351562 14.398438 241 10.449219 233.300781 C 9.25 230.949219 9.25 226.949219 11.75 220.101562 L 11.75 220 C 12.949219 216.199219 12.050781 212 11.449219 208.050781 C 10.851562 204.148438 10.550781 200.550781 11.898438 198.050781 C 13.648438 194.699219 16.148438 193.5 19.300781 192.398438 C 24.449219 190.550781 25.199219 190.699219 29.101562 187.449219 C 31.851562 184.601562 33.851562 181 36.25 178.449219 C 38.800781 175.699219 41.25 174.398438 45.101562 175 C 49.148438 175.601562 52.648438 178.398438 56.050781 183 L 65.851562 200.800781 C 70.601562 210.75 87.398438 225 86.351562 235.25 Z M 85.648438 222.300781 C 83.601562 219 80.851562 215.5 78.449219 212.5 C 82 212.5 85.550781 211.398438 86.800781 208.050781 C 87.949219 204.949219 86.800781 200.601562 83.101562 195.601562 C 76.351562 186.5 63.949219 179.351562 63.949219 179.351562 C 57.199219 175.148438 53.398438 170 51.648438 164.398438 C 49.898438 158.800781 50.148438 152.75 51.5 146.800781 C 54.101562 135.351562 60.800781 124.199219 65.101562 117.199219 C 66.25 116.351562 65.5 118.800781 60.75 127.601562 C 56.5 135.648438 48.550781 154.25 59.449219 168.800781 C 59.75 158.449219 62.199219 147.898438 66.351562 138.050781 C 72.351562 124.351562 85 100.601562 86 81.699219 C 86.550781 82.101562 88.300781 83.300781 89.101562 83.75 C 91.398438 85.101562 93.148438 87.101562 95.398438 88.898438 C 101.601562 93.898438 109.648438 93.5 116.601562 89.5 C 119.699219 87.75 122.199219 85.75 124.550781 85 C 129.5 83.449219 133.449219 80.699219 135.699219 77.5 C 139.550781 92.699219 148.550781 114.648438 154.300781 125.351562 C 157.351562 131.050781 163.449219 143.101562 166.101562 157.648438 C 167.75 157.601562 169.601562 157.851562 171.550781 158.351562 C 178.449219 140.5 165.699219 121.25 159.898438 115.898438 C 157.550781 113.601562 157.449219 112.601562 158.601562 112.648438 C 164.898438 118.25 173.199219 129.5 176.199219 142.148438 C 177.601562 147.949219 177.851562 154 176.398438 160 C 184.601562 163.398438 194.351562 168.949219 191.75 177.398438 C 190.648438 177.351562 190.148438 177.398438 189.648438 177.398438 C 191.25 172.351562 187.699219 168.601562 178.25 164.351562 C 168.449219 160.050781 160.25 160.050781 159.101562 170.601562 C 153.050781 172.699219 149.949219 177.949219 148.398438 184.25 C 147 189.851562 146.601562 196.601562 146.199219 204.199219 C 145.949219 208.050781 144.398438 213.199219 142.800781 218.699219 C 126.75 230.148438 104.449219 235.148438 85.648438 222.300781 Z M 214.351562 216.550781 C 213.898438 224.949219 193.75 226.5 182.75 239.800781 C 176.148438 247.648438 168.050781 252 160.949219 252.550781 C 153.851562 253.101562 147.699219 250.148438 144.101562 242.898438 C 141.75 237.351562 142.898438 231.351562 144.648438 224.75 C 146.5 217.648438 149.25 210.351562 149.601562 204.449219 C 150 196.851562 150.449219 190.199219 151.699219 185.101562 C 153 179.949219 155 176.5 158.550781 174.550781 C 158.699219 174.449219 158.898438 174.398438 159.050781 174.300781 C 159.449219 180.898438 162.699219 187.601562 168.449219 189.050781 C 174.75 190.699219 183.800781 185.300781 187.648438 180.898438 C 192.148438 180.75 195.5 180.449219 198.949219 183.449219 C 203.898438 187.699219 202.5 198.601562 207.5 204.25 C 212.800781 210.050781 214.5 214 214.351562 216.550781 Z M 86.648438 74.351562 C 87.648438 75.300781 89 76.601562 90.648438 77.898438 C 93.949219 80.5 98.550781 83.199219 104.300781 83.199219 C 110.101562 83.199219 115.550781 80.25 120.199219 77.800781 C 122.648438 76.5 125.648438 74.300781 127.601562 72.601562 C 129.550781 70.898438 130.550781 69.449219 129.148438 69.300781 C 127.75 69.148438 127.851562 70.601562 126.148438 71.851562 C 123.949219 73.449219 121.300781 75.550781 119.199219 76.75 C 115.5 78.851562 109.449219 81.851562 104.25 81.851562 C 99.050781 81.851562 94.898438 79.449219 91.800781 77 C 90.25 75.75 88.949219 74.5 87.949219 73.550781 C 87.199219 72.851562 87 71.25 85.800781 71.101562 C 85.101562 71.050781 84.898438 72.949219 86.648438 74.351562 Z M 86.648438 74.351562 "/>
</g>
</svg>
